<?xml version="1.0" encoding="UTF-8" standalone="no"?>
<!-- Created with Inkscape (http://www.inkscape.org/) -->

<svg
   xmlns:dc="http://purl.org/dc/elements/1.1/"
   xmlns:cc="http://creativecommons.org/ns#"
   xmlns:rdf="http://www.w3.org/1999/02/22-rdf-syntax-ns#"
   xmlns:svg="http://www.w3.org/2000/svg"
   xmlns="http://www.w3.org/2000/svg"
   xmlns:sodipodi="http://sodipodi.sourceforge.net/DTD/sodipodi-0.dtd"
   xmlns:inkscape="http://www.inkscape.org/namespaces/inkscape"
   width="210mm"
   height="297mm"
   viewBox="0 0 210 297"
   version="1.1"
   id="svg152"
   inkscape:version="0.92.4 (5da689c313, 2019-01-14)"
   sodipodi:docname="aimIndicator.svg">
  <defs
     id="defs146" />
  <sodipodi:namedview
     id="base"
     pagecolor="#ffffff"
     bordercolor="#666666"
     borderopacity="1.0"
     inkscape:pageopacity="0.0"
     inkscape:pageshadow="2"
     inkscape:zoom="0.35"
     inkscape:cx="-149.37099"
     inkscape:cy="990.42808"
     inkscape:document-units="mm"
     inkscape:current-layer="layer3"
     showgrid="false"
     inkscape:snap-object-midpoints="true"
     inkscape:snap-global="true"
     inkscape:snap-others="true"
     inkscape:window-width="1920"
     inkscape:window-height="986"
     inkscape:window-x="-11"
     inkscape:window-y="-11"
     inkscape:window-maximized="1" />
  <metadata
     id="metadata149">
    <rdf:RDF>
      <cc:Work
         rdf:about="">
        <dc:format>image/svg+xml</dc:format>
        <dc:type
           rdf:resource="http://purl.org/dc/dcmitype/StillImage" />
        <dc:title></dc:title>
      </cc:Work>
    </rdf:RDF>
  </metadata>
  <g
     inkscape:label="Layer 1"
     inkscape:groupmode="layer"
     id="layer1">
    <path
       style="fill:#000000;stroke-width:0.99999994"
       d="M 377.79688 168.93555 A 224.25385 224.25385 0 0 0 153.54297 393.18945 A 224.25385 224.25385 0 0 0 377.79688 617.44336 A 224.25385 224.25385 0 0 0 602.05078 393.18945 A 224.25385 224.25385 0 0 0 377.79688 168.93555 z M 377.79688 205.30078 A 187.88837 187.88837 0 0 1 565.68555 393.18945 A 187.88837 187.88837 0 0 1 377.79688 581.07812 A 187.88837 187.88837 0 0 1 189.9082 393.18945 A 187.88837 187.88837 0 0 1 377.79688 205.30078 z "
       transform="scale(0.26458333)"
       id="path154"
       inkscape:export-xdpi="96"
       inkscape:export-ydpi="96" />
    <path
       inkscape:connector-curvature="0"
       style="fill:#000000;stroke-width:0.16327892"
       d="M 99.95876,67.415437 A 36.615926,36.615926 0 0 0 63.342824,104.03138 36.615926,36.615926 0 0 0 99.95876,140.64731 36.615926,36.615926 0 0 0 136.57469,104.03138 36.615926,36.615926 0 0 0 99.95876,67.415437 Z m 0,5.937671 A 30.67821,30.67821 0 0 1 130.63701,104.03138 30.67821,30.67821 0 0 1 99.95876,134.70963 30.67821,30.67821 0 0 1 69.280495,104.03138 30.67821,30.67821 0 0 1 99.95876,73.353108 Z"
       id="path154-2"
       inkscape:export-xdpi="96"
       inkscape:export-ydpi="96" />
  </g>
  <g
     inkscape:groupmode="layer"
     id="layer3"
     inkscape:label="Layer 2">
    <path
       style="fill:#000000;stroke-width:1.04036188"
       d="M 366.68555 114.38672 L 366.68555 300.39844 A 93.571422 93.571422 0 0 1 377.79688 299.61719 A 93.571422 93.571422 0 0 1 388.9082 300.35352 L 388.9082 114.38672 L 366.68555 114.38672 z M 98.994141 382.07812 L 98.994141 404.30078 L 285.00586 404.30078 A 93.571422 93.571422 0 0 1 284.22461 393.18945 A 93.571422 93.571422 0 0 1 284.96094 382.07812 L 98.994141 382.07812 z M 470.58789 382.07812 A 93.571422 93.571422 0 0 1 471.36914 393.18945 A 93.571422 93.571422 0 0 1 470.63281 404.30078 L 656.59961 404.30078 L 656.59961 382.07812 L 470.58789 382.07812 z M 388.9082 485.98047 A 93.571422 93.571422 0 0 1 377.79688 486.76172 A 93.571422 93.571422 0 0 1 366.68555 486.02539 L 366.68555 671.99219 L 388.9082 671.99219 L 388.9082 485.98047 z "
       transform="scale(0.26458333)"
       id="rect188"
       inkscape:export-xdpi="96"
       inkscape:export-ydpi="96" />
  </g>
</svg>
