<?xml version="1.0" encoding="UTF-8" standalone="no"?>
<!-- Created with Inkscape (http://www.inkscape.org/) -->

<svg
   xmlns:dc="http://purl.org/dc/elements/1.1/"
   xmlns:cc="http://creativecommons.org/ns#"
   xmlns:rdf="http://www.w3.org/1999/02/22-rdf-syntax-ns#"
   xmlns:svg="http://www.w3.org/2000/svg"
   xmlns="http://www.w3.org/2000/svg"
   xmlns:sodipodi="http://sodipodi.sourceforge.net/DTD/sodipodi-0.dtd"
   xmlns:inkscape="http://www.inkscape.org/namespaces/inkscape"
   width="210mm"
   height="297mm"
   viewBox="0 0 210 297"
   version="1.1"
   id="svg8"
   inkscape:export-filename="C:\Users\aking\Pictures\curvearrow.png"
   inkscape:export-xdpi="96"
   inkscape:export-ydpi="96"
   inkscape:version="0.92.4 (5da689c313, 2019-01-14)"
   sodipodi:docname="curvedArrow.svg">
  <defs
     id="defs2" />
  <sodipodi:namedview
     id="base"
     pagecolor="#ffffff"
     bordercolor="#666666"
     borderopacity="1.0"
     inkscape:pageopacity="0.0"
     inkscape:pageshadow="2"
     inkscape:zoom="0.98994949"
     inkscape:cx="220.54973"
     inkscape:cy="1058.2812"
     inkscape:document-units="mm"
     inkscape:current-layer="layer2"
     showgrid="false"
     inkscape:window-width="1920"
     inkscape:window-height="986"
     inkscape:window-x="-11"
     inkscape:window-y="-11"
     inkscape:window-maximized="1"
     inkscape:snap-global="false" />
  <metadata
     id="metadata5">
    <rdf:RDF>
      <cc:Work
         rdf:about="">
        <dc:format>image/svg+xml</dc:format>
        <dc:type
           rdf:resource="http://purl.org/dc/dcmitype/StillImage" />
        <dc:title />
      </cc:Work>
    </rdf:RDF>
  </metadata>
  <g
     inkscape:label="Layer 1"
     inkscape:groupmode="layer"
     id="layer1">
    <path
       style="fill:#000000;stroke-width:0.26458332"
       d="M 21.745294,5.7953281 C 5.3805565,13.686013 1.1046815,37.741534 13.885032,50.699849 17.559935,57.129878 21.373265,52.241805 24.875427,48.085571 24.730194,44.7246 17.151754,41.109699 17.079812,35.765484 14.729706,28.076207 18.127486,19.290247 24.757012,14.848062 23.664062,12.1808 27.398268,0.14410878 21.745294,5.7953281 Z"
       id="path3715-0"
       inkscape:connector-curvature="0" />
    <path
       style="fill:#000000;stroke-width:0.26458332"
       d="m 15.219903,7.3187656 c 3.048963,5.2754874 6.093459,10.5535534 9.140625,15.8300784 3.6243,-6.276345 7.246123,-12.554121 10.871094,-18.8300784 -7.248047,0 -14.496094,0 -21.744141,0 0.577474,1 1.154948,2 1.732422,3 z"
       id="path3741-7"
       inkscape:connector-curvature="0" />
  </g>
  <g
     inkscape:groupmode="layer"
     id="layer2"
     inkscape:label="Layer 2">
    <path
       style="fill:#ffffff;stroke-width:0.26458332"
       d="M 22.756387,7.5193156 A 26.860587,26.860587 0 0 0 8.3236765,31.309078 26.860587,26.860587 0 0 0 18.189747,52.072667 l 4.55631,-4.667932 a 20.980657,20.980657 0 0 1 -8.40879,-16.763833 20.980657,20.980657 0 0 1 8.41912,-16.777789 z"
       id="path3715"
       inkscape:connector-curvature="0" />
    <path
       sodipodi:type="star"
       id="path3741"
       sodipodi:sides="3"
       sodipodi:cx="24.359955"
       sodipodi:cy="10.595512"
       sodipodi:r1="8.5526257"
       sodipodi:r2="4.2763128"
       sodipodi:arg1="1.5707963"
       sodipodi:arg2="2.6179939"
       inkscape:flatsided="false"
       inkscape:rounded="0"
       inkscape:randomized="0"
       d="m 24.359955,19.148138 -3.703396,-6.414469 -3.703395,-6.4144692 7.406791,-2e-7 7.406791,-2e-7 -3.703396,6.4144696 z"
       inkscape:transform-center-x="1.2391204e-06"
       inkscape:transform-center-y="2.1381556"
       style="fill:#ffffff;stroke-width:0.26458332" />
  </g>
</svg>
