<?xml version="1.0" encoding="UTF-8" standalone="no"?>
<!-- Created with Inkscape (http://www.inkscape.org/) -->

<svg
   xmlns:dc="http://purl.org/dc/elements/1.1/"
   xmlns:cc="http://creativecommons.org/ns#"
   xmlns:rdf="http://www.w3.org/1999/02/22-rdf-syntax-ns#"
   xmlns:svg="http://www.w3.org/2000/svg"
   xmlns="http://www.w3.org/2000/svg"
   xmlns:sodipodi="http://sodipodi.sourceforge.net/DTD/sodipodi-0.dtd"
   xmlns:inkscape="http://www.inkscape.org/namespaces/inkscape"
   width="210mm"
   height="297mm"
   viewBox="0 0 210 297"
   version="1.1"
   id="svg8"
   inkscape:version="0.92.3 (2405546, 2018-03-11)"
   sodipodi:docname="combat and selection icons.svg"
   inkscape:export-filename="C:\Users\Thompson\COMP-4900-Trieris\Assets\ArtAssets\targetIcon.png"
   inkscape:export-xdpi="60.959999"
   inkscape:export-ydpi="60.959999">
  <defs
     id="defs2">
    <inkscape:perspective
       sodipodi:type="inkscape:persp3d"
       inkscape:vp_x="0 : 148.5 : 1"
       inkscape:vp_y="0 : 1000 : 0"
       inkscape:vp_z="210 : 148.5 : 1"
       inkscape:persp3d-origin="105 : 99 : 1"
       id="perspective4711" />
  </defs>
  <sodipodi:namedview
     id="base"
     pagecolor="#ffffff"
     bordercolor="#666666"
     borderopacity="1.0"
     inkscape:pageopacity="0.0"
     inkscape:pageshadow="2"
     inkscape:zoom="0.70710678"
     inkscape:cx="302.67422"
     inkscape:cy="567.05005"
     inkscape:document-units="mm"
     inkscape:current-layer="layer1"
     showgrid="false"
     inkscape:snap-bbox="true"
     inkscape:snap-bbox-midpoints="true"
     inkscape:snap-bbox-edge-midpoints="true"
     inkscape:bbox-nodes="true"
     inkscape:bbox-paths="true"
     inkscape:snap-global="false"
     inkscape:window-width="1920"
     inkscape:window-height="1057"
     inkscape:window-x="1912"
     inkscape:window-y="-8"
     inkscape:window-maximized="1"
     showguides="true"
     inkscape:guide-bbox="true" />
  <metadata
     id="metadata5">
    <rdf:RDF>
      <cc:Work
         rdf:about="">
        <dc:format>image/svg+xml</dc:format>
        <dc:type
           rdf:resource="http://purl.org/dc/dcmitype/StillImage" />
        <dc:title />
      </cc:Work>
    </rdf:RDF>
  </metadata>
  <g
     inkscape:label="Layer 1"
     inkscape:groupmode="layer"
     id="layer1">
    <path
       style="opacity:1;fill:#ff522a;fill-opacity:1;stroke:#000000;stroke-width:6.41550064;stroke-linecap:butt;stroke-miterlimit:4;stroke-dasharray:none;stroke-dashoffset:0;stroke-opacity:1;paint-order:markers stroke fill"
       d="M 37.258328,11.470172 A 21.151888,21.151888 0 0 0 16.10636,32.621876 21.151888,21.151888 0 0 0 20.729841,45.816329 L 37.258328,72.718952 53.879692,45.664877 A 21.151888,21.151888 0 0 0 58.410298,32.621876 21.151888,21.151888 0 0 0 37.258328,11.470172 Z"
       id="path815"
       inkscape:connector-curvature="0"
       inkscape:export-xdpi="117.38991"
       inkscape:export-ydpi="117.38991" />
    <circle
       style="opacity:1;fill:#ff522a;fill-opacity:1;stroke:#000000;stroke-width:5.3414731;stroke-linecap:butt;stroke-miterlimit:4;stroke-dasharray:none;stroke-dashoffset:0;stroke-opacity:1;paint-order:markers stroke fill"
       id="path4510"
       cx="37.187355"
       cy="31.887848"
       r="9.8847847"
       inkscape:export-xdpi="117.38991"
       inkscape:export-ydpi="117.38991" />
    <path
       style="opacity:1;fill:#000000;fill-opacity:1;stroke:none;stroke-width:6.09458447;stroke-linecap:butt;stroke-miterlimit:4;stroke-dasharray:none;stroke-dashoffset:0;stroke-opacity:1;paint-order:markers stroke fill"
       d="m 19.959128,30.523197 v 2.729285 h 12.181789 v -2.729285 z m 22.2802,0 v 2.729285 h 12.449071 v -2.729285 z"
       id="rect4512"
       inkscape:connector-curvature="0"
       inkscape:export-xdpi="117.38991"
       inkscape:export-ydpi="117.38991" />
    <path
       style="opacity:1;fill:#000000;fill-opacity:1;stroke:none;stroke-width:6.62022018;stroke-linecap:butt;stroke-miterlimit:4;stroke-dasharray:none;stroke-dashoffset:0;stroke-opacity:1;paint-order:markers stroke fill"
       d="M 35.656218,14.487848 V 27.09523 h 3.069656 V 14.487848 Z m 0,21.750386 v 14.68548 h 3.069656 v -14.68548 z"
       id="rect4514"
       inkscape:connector-curvature="0"
       inkscape:export-xdpi="117.38991"
       inkscape:export-ydpi="117.38991" />
    <path
       style="opacity:1;fill:#ff522a;fill-opacity:1;stroke:#000000;stroke-width:6.41550112;stroke-linecap:butt;stroke-miterlimit:4;stroke-dasharray:none;stroke-dashoffset:0;stroke-opacity:1;paint-order:markers stroke fill"
       d="M 100.5764,12.446488 A 21.151888,21.151888 0 0 0 79.424427,33.598193 21.151888,21.151888 0 0 0 84.04791,46.792646 l 16.52849,26.902628 16.62136,-27.054081 a 21.151888,21.151888 0 0 0 4.53061,-13.043 21.151888,21.151888 0 0 0 -21.15197,-21.151705 z"
       id="path815-6"
       inkscape:connector-curvature="0"
       inkscape:export-xdpi="60.959999"
       inkscape:export-ydpi="60.959999" />
    <path
       sodipodi:type="star"
       style="opacity:1;fill:#000000;fill-opacity:1;stroke:none;stroke-width:6.26940727;stroke-linecap:butt;stroke-miterlimit:4;stroke-dasharray:none;stroke-dashoffset:0;stroke-opacity:1;paint-order:markers stroke fill"
       id="path4550"
       sodipodi:sides="5"
       sodipodi:cx="62.555058"
       sodipodi:cy="102.53125"
       sodipodi:r1="20.630886"
       sodipodi:r2="16.690739"
       sodipodi:arg1="-1.5707963"
       sodipodi:arg2="-0.9424778"
       inkscape:flatsided="true"
       inkscape:rounded="0"
       inkscape:randomized="0"
       d="m 62.555058,81.900364 19.621138,14.255592 -7.494608,23.066034 -24.253061,0 -7.494608,-23.066035 z"
       inkscape:transform-center-y="-2.5387143"
       transform="matrix(0.21500327,0,0,1.2886348,10.161968,-5.3139727)" />
    <rect
       style="opacity:1;fill:#000000;fill-opacity:1;stroke:none;stroke-width:3.29999995;stroke-linecap:butt;stroke-miterlimit:4;stroke-dasharray:none;stroke-dashoffset:0;stroke-opacity:1;paint-order:markers stroke fill"
       id="rect4556"
       width="12.614953"
       height="2.5985863"
       x="17.133299"
       y="149.14607" />
    <rect
       y="-25.455496"
       x="152.54062"
       height="3.9349341"
       width="8.8071785"
       id="rect4560"
       style="opacity:1;fill:#000000;fill-opacity:1;stroke:none;stroke-width:3.29999995;stroke-linecap:butt;stroke-miterlimit:4;stroke-dasharray:none;stroke-dashoffset:0;stroke-opacity:1;paint-order:markers stroke fill"
       transform="rotate(90)" />
    <path
       style="opacity:1;fill:#000000;fill-opacity:1;stroke:none;stroke-width:3.30000019;stroke-linecap:butt;stroke-miterlimit:4;stroke-dasharray:none;stroke-dashoffset:0;stroke-opacity:1;paint-order:markers stroke fill"
       d="m 19.919382,162.01432 a 3.5124444,3.5124444 0 0 0 -0.0021,0.0455 3.5124444,3.5124444 0 0 0 3.512423,3.51241 3.5124444,3.5124444 0 0 0 3.512422,-3.51241 3.5124444,3.5124444 0 0 0 -0.0018,-0.0455 z"
       id="path4562"
       inkscape:connector-curvature="0" />
    <path
       sodipodi:type="star"
       style="opacity:1;fill:#000000;fill-opacity:1;stroke:none;stroke-width:6.26940727;stroke-linecap:butt;stroke-miterlimit:4;stroke-dasharray:none;stroke-dashoffset:0;stroke-opacity:1;paint-order:markers stroke fill"
       id="path4550-0"
       sodipodi:sides="5"
       sodipodi:cx="62.555058"
       sodipodi:cy="102.53125"
       sodipodi:r1="20.630886"
       sodipodi:r2="16.690739"
       sodipodi:arg1="-1.5707963"
       sodipodi:arg2="-0.9424778"
       inkscape:flatsided="true"
       inkscape:rounded="0"
       inkscape:randomized="0"
       d="m 62.555058,81.900364 19.621138,14.255592 -7.494608,23.066034 -24.253061,0 -7.494608,-23.066035 z"
       inkscape:transform-center-y="-1.1144541"
       transform="matrix(0.16510288,-0.13772235,0.82544701,0.98955388,-42.603891,29.922068)"
       inkscape:transform-center-x="0.62513507" />
    <rect
       style="opacity:1;fill:#000000;fill-opacity:1;stroke:none;stroke-width:3.29999995;stroke-linecap:butt;stroke-miterlimit:4;stroke-dasharray:none;stroke-dashoffset:0;stroke-opacity:1;paint-order:markers stroke fill"
       id="rect4556-8"
       width="12.614953"
       height="2.5985863"
       x="-44.911427"
       y="150.14714"
       transform="rotate(-39.833538)" />
    <rect
       y="36.58923"
       x="153.54169"
       height="3.9349341"
       width="8.8071795"
       id="rect4560-0"
       style="opacity:1;fill:#000000;fill-opacity:1;stroke:none;stroke-width:3.29999995;stroke-linecap:butt;stroke-miterlimit:4;stroke-dasharray:none;stroke-dashoffset:0;stroke-opacity:1;paint-order:markers stroke fill"
       transform="rotate(50.166462)" />
    <path
       style="opacity:1;fill:#000000;fill-opacity:1;stroke:none;stroke-width:3.30000019;stroke-linecap:butt;stroke-miterlimit:4;stroke-dasharray:none;stroke-dashoffset:0;stroke-opacity:1;paint-order:markers stroke fill"
       d="m 72.072607,152.16472 a 3.5124446,3.5124446 0 0 0 0.02753,0.0363 3.5124446,3.5124446 0 0 0 4.947127,0.4473 3.5124446,3.5124446 0 0 0 0.447313,-4.94713 3.5124446,3.5124446 0 0 0 -0.03053,-0.0338 z"
       id="path4562-2"
       inkscape:connector-curvature="0" />
    <path
       sodipodi:type="star"
       style="opacity:1;fill:#000000;fill-opacity:1;stroke:none;stroke-width:11.05755711;stroke-linecap:butt;stroke-miterlimit:4;stroke-dasharray:none;stroke-dashoffset:0;stroke-opacity:1;paint-order:markers stroke fill"
       id="path4550-0-4"
       sodipodi:sides="5"
       sodipodi:cx="62.555058"
       sodipodi:cy="102.53125"
       sodipodi:r1="20.630886"
       sodipodi:r2="16.690739"
       sodipodi:arg1="-1.5707963"
       sodipodi:arg2="-0.9424778"
       inkscape:flatsided="true"
       inkscape:rounded="0"
       inkscape:randomized="0"
       d="m 62.555058,81.900364 19.621138,14.255592 -7.494608,23.066034 -24.253061,0 -7.494608,-23.066035 z"
       inkscape:transform-center-y="-0.63187296"
       transform="matrix(0.09360993,-0.07808574,0.46801145,0.56105667,42.882613,-20.75888)"
       inkscape:transform-center-x="0.3544387"
       inkscape:export-xdpi="60.959999"
       inkscape:export-ydpi="60.959999" />
    <rect
       style="opacity:1;fill:#000000;fill-opacity:1;stroke:none;stroke-width:3.29999995;stroke-linecap:butt;stroke-miterlimit:4;stroke-dasharray:none;stroke-dashoffset:0;stroke-opacity:1;paint-order:markers stroke fill"
       id="rect4556-8-0"
       width="7.1524186"
       height="1.4733449"
       x="50.179829"
       y="99.1036"
       transform="rotate(-39.833538)"
       inkscape:export-xdpi="60.959999"
       inkscape:export-ydpi="60.959999" />
    <rect
       y="-54.898342"
       x="101.02822"
       height="2.2310264"
       width="4.9934893"
       id="rect4560-0-0"
       style="opacity:1;fill:#000000;fill-opacity:1;stroke:none;stroke-width:3.29999995;stroke-linecap:butt;stroke-miterlimit:4;stroke-dasharray:none;stroke-dashoffset:0;stroke-opacity:1;paint-order:markers stroke fill"
       transform="rotate(50.166462)"
       inkscape:export-xdpi="60.959999"
       inkscape:export-ydpi="60.959999" />
    <path
       style="opacity:1;fill:#000000;fill-opacity:1;stroke:none;stroke-width:3.30000019;stroke-linecap:butt;stroke-miterlimit:4;stroke-dasharray:none;stroke-dashoffset:0;stroke-opacity:1;paint-order:markers stroke fill"
       d="m 107.90184,48.550186 a 1.9914837,1.9914837 0 0 0 0.0156,0.02058 1.9914837,1.9914837 0 0 0 2.80491,0.25361 1.9914837,1.9914837 0 0 0 0.25362,-2.80492 1.9914837,1.9914837 0 0 0 -0.0173,-0.01916 z"
       id="path4562-2-6"
       inkscape:connector-curvature="0"
       inkscape:export-xdpi="60.959999"
       inkscape:export-ydpi="60.959999" />
    <path
       inkscape:transform-center-x="-0.38169135"
       transform="matrix(-0.10080934,-0.07971901,-0.50400557,0.57279196,162.64921,-21.902525)"
       inkscape:transform-center-y="-0.64509131"
       d="m 62.555058,81.900364 19.621138,14.255592 -7.494608,23.066034 -24.253061,0 -7.494608,-23.066035 z"
       inkscape:randomized="0"
       inkscape:rounded="0"
       inkscape:flatsided="true"
       sodipodi:arg2="-0.9424778"
       sodipodi:arg1="-1.5707963"
       sodipodi:r2="16.690739"
       sodipodi:r1="20.630886"
       sodipodi:cy="102.53125"
       sodipodi:cx="62.555058"
       sodipodi:sides="5"
       id="path4623"
       style="opacity:1;fill:#000000;fill-opacity:1;stroke:none;stroke-width:10.54568195;stroke-linecap:butt;stroke-miterlimit:4;stroke-dasharray:none;stroke-dashoffset:0;stroke-opacity:1;paint-order:markers stroke fill"
       sodipodi:type="star"
       inkscape:export-xdpi="60.959999"
       inkscape:export-ydpi="60.959999" />
    <rect
       transform="matrix(-0.7843804,-0.62028008,-0.66058994,0.75074692,0,0)"
       y="-26.77965"
       x="-103.62115"
       height="1.5385466"
       width="7.5407515"
       id="rect4625"
       style="opacity:1;fill:#000000;fill-opacity:1;stroke:none;stroke-width:3.30227613;stroke-linecap:butt;stroke-miterlimit:4;stroke-dasharray:none;stroke-dashoffset:0;stroke-opacity:1;paint-order:markers stroke fill"
       inkscape:export-xdpi="60.959999"
       inkscape:export-ydpi="60.959999" />
    <rect
       transform="matrix(-0.66058994,0.75074692,0.7843804,0.62028008,0,0)"
       style="opacity:1;fill:#000000;fill-opacity:1;stroke:none;stroke-width:3.30227613;stroke-linecap:butt;stroke-miterlimit:4;stroke-dasharray:none;stroke-dashoffset:0;stroke-opacity:1;paint-order:markers stroke fill"
       id="rect4627"
       width="5.2144728"
       height="2.3521576"
       x="-24.769838"
       y="98.646446"
       inkscape:export-xdpi="60.959999"
       inkscape:export-ydpi="60.959999" />
    <path
       inkscape:connector-curvature="0"
       id="path4629"
       d="m 92.629457,48.856236 a 2.144646,2.0331384 0 0 1 -0.01684,0.02103 2.144646,2.0331384 0 0 1 -3.02064,0.258911 2.144646,2.0331384 0 0 1 -0.273125,-2.863586 2.144646,2.0331384 0 0 1 0.01865,-0.01956 z"
       style="opacity:1;fill:#000000;fill-opacity:1;stroke:none;stroke-width:3.29999995;stroke-linecap:butt;stroke-miterlimit:4;stroke-dasharray:none;stroke-dashoffset:0;stroke-opacity:1;paint-order:markers stroke fill"
       inkscape:export-xdpi="60.959999"
       inkscape:export-ydpi="60.959999" />
    <path
       style="opacity:1;fill:#ffffff;fill-opacity:1;stroke:#000000;stroke-width:6.41550159;stroke-linecap:butt;stroke-miterlimit:4;stroke-dasharray:none;stroke-dashoffset:0;stroke-opacity:1;paint-order:markers stroke fill"
       d="m 154.34816,13.094236 a 21.151888,21.151888 0 0 0 -21.15198,21.151706 21.151888,21.151888 0 0 0 4.62348,13.194452 l 16.5285,26.90263 16.62136,-27.054083 a 21.151888,21.151888 0 0 0 4.53061,-13.042999 21.151888,21.151888 0 0 0 -21.15197,-21.151706 z"
       id="path815-6-9"
       inkscape:connector-curvature="0"
       inkscape:export-xdpi="60.959999"
       inkscape:export-ydpi="60.959999" />
    <path
       style="opacity:1;fill:#ff522a;fill-opacity:1;stroke:#000000;stroke-width:6.41550207;stroke-linecap:butt;stroke-miterlimit:4;stroke-dasharray:none;stroke-dashoffset:0;stroke-opacity:1;paint-order:markers stroke fill"
       d="m 161.31261,106.00287 a 21.151888,21.151888 0 0 0 -21.15198,21.15171 21.151888,21.151888 0 0 0 4.62348,13.19445 l 16.5285,26.90263 16.62136,-27.05408 a 21.151888,21.151888 0 0 0 4.53061,-13.043 21.151888,21.151888 0 0 0 -21.15197,-21.15171 z"
       id="path815-6-9-4"
       inkscape:connector-curvature="0"
       inkscape:export-xdpi="55.58091"
       inkscape:export-ydpi="55.58091" />
    <path
       style="opacity:1;fill:#ff522a;fill-opacity:1;stroke:none;stroke-width:24.24944878;stroke-linecap:butt;stroke-miterlimit:4;stroke-dasharray:none;stroke-dashoffset:0;stroke-opacity:1;paint-order:markers stroke fill"
       d="M 421.78906 506.98242 A 36.416001 30.935925 0 0 0 385.37305 537.91992 A 36.416001 30.935925 0 0 0 395.27344 559.09375 L 395.27344 568.85547 L 405.52539 568.85547 L 405.52539 584.76562 L 411.53711 584.76562 L 411.53711 575.75 L 413.6582 575.75 L 413.6582 584.76562 L 419.84375 584.76562 L 419.84375 575.57227 L 421.9668 575.57227 L 421.9668 584.76562 L 428.15234 584.76562 L 428.15234 575.21875 L 430.27539 575.21875 L 430.27539 584.76562 L 436.63867 584.76562 L 436.63867 568.85547 L 446.71484 568.85547 L 446.71484 560.44336 A 36.416001 30.935925 0 0 0 458.20508 537.91992 A 36.416001 30.935925 0 0 0 421.78906 506.98242 z "
       transform="scale(0.26458333)"
       id="path4709" />
    <path
       sodipodi:type="star"
       style="opacity:1;fill:#000000;fill-opacity:1;stroke:none;stroke-width:6.41599989;stroke-linecap:butt;stroke-miterlimit:4;stroke-dasharray:none;stroke-dashoffset:0;stroke-opacity:1;paint-order:markers stroke fill"
       id="path4731"
       sodipodi:sides="3"
       sodipodi:cx="111.50512"
       sodipodi:cy="148.11042"
       sodipodi:r1="1.9854771"
       sodipodi:r2="0.99273849"
       sodipodi:arg1="-1.5707963"
       sodipodi:arg2="-0.52359878"
       inkscape:flatsided="true"
       inkscape:rounded="0"
       inkscape:randomized="0"
       d="m 111.50512,146.12494 1.71947,2.97821 -3.43894,0 z"
       inkscape:transform-center-x="1.5833333e-006"
       inkscape:transform-center-y="-0.49637113" />
    <path
       style="opacity:1;fill:#000000;fill-opacity:1;stroke:none;stroke-width:6.41599989;stroke-linecap:butt;stroke-miterlimit:4;stroke-dasharray:none;stroke-dashoffset:0;stroke-opacity:1;paint-order:markers stroke fill"
       d="m 105.56317,141.81512 1.75286,1.75286 -1.819,1.819 0.72753,0.72753 1.81899,-1.819 1.819,1.819 0.72753,-0.72753 -1.819,-1.819 1.75286,-1.75286 -0.72753,-0.72752 -1.75286,1.75286 -1.75286,-1.75286 z"
       id="rect4764"
       inkscape:connector-curvature="0" />
    <path
       style="opacity:1;fill:#000000;fill-opacity:1;stroke:none;stroke-width:6.41599989;stroke-linecap:butt;stroke-miterlimit:4;stroke-dasharray:none;stroke-dashoffset:0;stroke-opacity:1;paint-order:markers stroke fill"
       d="m 112.29851,141.80136 1.75286,1.75286 -1.819,1.819 0.72753,0.72753 1.81899,-1.819 1.819,1.819 0.72753,-0.72753 -1.819,-1.819 1.75286,-1.75286 -0.72753,-0.72752 -1.75286,1.75286 -1.75286,-1.75286 z"
       id="rect4764-7"
       inkscape:connector-curvature="0" />
    <path
       style="opacity:1;fill:#000000;fill-opacity:1;stroke:none;stroke-width:6.41599989;stroke-linecap:butt;stroke-miterlimit:4;stroke-dasharray:none;stroke-dashoffset:0;stroke-opacity:1;paint-order:markers stroke fill"
       d="m 161.14828,112.56542 a 15.341036,12.945107 0 0 0 -15.34104,12.94575 15.341036,12.945107 0 0 0 4.17076,8.86017 v 4.08479 h 4.31887 v 6.6576 h 2.53256 v -3.7726 h 0.89356 v 3.7726 h 2.60578 v -3.84696 h 0.8944 v 3.84696 h 2.60579 v -3.99489 h 0.89437 v 3.99489 h 2.68067 v -6.6576 h 4.24482 v -3.52004 a 15.341036,12.945107 0 0 0 4.8405,-9.42492 15.341036,12.945107 0 0 0 -15.34104,-12.94575 z m 2.27339,10.96712 2.79092,2.77222 2.79093,-2.77222 1.1585,1.15073 -2.79093,2.77223 2.89625,2.87684 -1.15851,1.15072 -2.89624,-2.87684 -2.89625,2.87684 -1.15849,-1.15072 2.89625,-2.87684 -2.79092,-2.77223 z m -10.72433,0.0219 2.79092,2.77221 2.79092,-2.77221 1.15851,1.15073 -2.79093,2.77223 2.89624,2.87683 -1.15848,1.14992 -2.89626,-2.87685 -2.89624,2.87685 -1.15851,-1.14992 2.89624,-2.87683 -2.79091,-2.77223 z m 8.22797,9.29824 2.73743,4.71 h -5.47489 z"
       id="path4709-3"
       inkscape:connector-curvature="0"
       inkscape:export-xdpi="55.58091"
       inkscape:export-ydpi="55.58091" />
    <circle
       style="opacity:1;fill:#a0ffff;fill-opacity:0.66666669;stroke:#ffffff;stroke-width:2.54099989;stroke-linecap:butt;stroke-miterlimit:4;stroke-dasharray:none;stroke-dashoffset:0;stroke-opacity:1;paint-order:markers stroke fill"
       id="path4510-8"
       cx="68.919846"
       cy="74.461235"
       r="11.472285"
       inkscape:export-xdpi="117.38991"
       inkscape:export-ydpi="117.38991" />
    <path
       style="opacity:1;fill:#a0ffff;fill-opacity:0.66666669;stroke:none;stroke-width:6.09458447;stroke-linecap:butt;stroke-miterlimit:4;stroke-dasharray:none;stroke-dashoffset:0;stroke-opacity:1;paint-order:markers stroke fill"
       d="m 51.691615,73.096583 v 2.729285 h 12.181789 v -2.729285 z m 22.2802,0 v 2.729285 h 12.449072 v -2.729285 z"
       id="rect4512-0"
       inkscape:connector-curvature="0"
       inkscape:export-xdpi="117.38991"
       inkscape:export-ydpi="117.38991" />
    <path
       style="opacity:1;fill:#a0ffff;fill-opacity:0.66666669;stroke:none;stroke-width:6.62022018;stroke-linecap:butt;stroke-miterlimit:4;stroke-dasharray:none;stroke-dashoffset:0;stroke-opacity:1;paint-order:markers stroke fill"
       d="m 67.388705,57.061234 v 12.607382 h 3.069656 V 57.061234 Z m 0,21.750386 V 93.4971 h 3.069656 V 78.81162 Z"
       id="rect4514-6"
       inkscape:connector-curvature="0"
       inkscape:export-xdpi="117.38991"
       inkscape:export-ydpi="117.38991" />
    <path
       sodipodi:type="star"
       style="opacity:1;fill:#ffc9ff;fill-opacity:1;stroke:none;stroke-width:11.05755711;stroke-linecap:butt;stroke-miterlimit:4;stroke-dasharray:none;stroke-dashoffset:0;stroke-opacity:1;paint-order:markers stroke fill"
       id="path4550-0-4-2"
       sodipodi:sides="5"
       sodipodi:cx="62.555058"
       sodipodi:cy="102.53125"
       sodipodi:r1="20.630886"
       sodipodi:r2="16.690739"
       sodipodi:arg1="-1.5707963"
       sodipodi:arg2="-0.9424778"
       inkscape:flatsided="true"
       inkscape:rounded="0"
       inkscape:randomized="0"
       d="m 62.555058,81.900364 19.621138,14.255592 -7.494608,23.066034 -24.253061,0 -7.494608,-23.066035 z"
       inkscape:transform-center-y="-0.63187296"
       transform="matrix(0.09360993,-0.07808574,0.46801146,0.56105666,31.431319,42.924755)"
       inkscape:transform-center-x="0.3544387"
       inkscape:export-xdpi="60.959999"
       inkscape:export-ydpi="60.959999" />
    <rect
       style="opacity:1;fill:#ffc9ff;fill-opacity:1;stroke:none;stroke-width:3.29999995;stroke-linecap:butt;stroke-miterlimit:4;stroke-dasharray:none;stroke-dashoffset:0;stroke-opacity:1;paint-order:markers stroke fill"
       id="rect4556-8-0-0"
       width="7.1524186"
       height="1.4733449"
       x="0.5931344"
       y="140.67159"
       transform="rotate(-39.833538)"
       inkscape:export-xdpi="60.959999"
       inkscape:export-ydpi="60.959999" />
    <rect
       y="-5.3116479"
       x="142.59619"
       height="2.2310264"
       width="4.9934893"
       id="rect4560-0-0-5"
       style="opacity:1;fill:#ffc9ff;fill-opacity:1;stroke:none;stroke-width:3.29999995;stroke-linecap:butt;stroke-miterlimit:4;stroke-dasharray:none;stroke-dashoffset:0;stroke-opacity:1;paint-order:markers stroke fill"
       transform="rotate(50.166462)"
       inkscape:export-xdpi="60.959999"
       inkscape:export-ydpi="60.959999" />
    <path
       style="opacity:1;fill:#ffc9ff;fill-opacity:1;stroke:none;stroke-width:3.30000019;stroke-linecap:butt;stroke-miterlimit:4;stroke-dasharray:none;stroke-dashoffset:0;stroke-opacity:1;paint-order:markers stroke fill"
       d="m 96.450548,112.23382 a 1.9914837,1.9914837 0 0 0 0.0156,0.0206 1.9914837,1.9914837 0 0 0 2.80491,0.25361 1.9914837,1.9914837 0 0 0 0.25362,-2.80492 1.9914837,1.9914837 0 0 0 -0.0173,-0.0192 z"
       id="path4562-2-6-0"
       inkscape:connector-curvature="0"
       inkscape:export-xdpi="60.959999"
       inkscape:export-ydpi="60.959999" />
    <path
       inkscape:transform-center-x="-0.38169135"
       transform="matrix(-0.10080934,-0.07971901,-0.50400556,0.57279196,151.19792,41.781112)"
       inkscape:transform-center-y="-0.64509131"
       d="m 62.555058,81.900364 19.621138,14.255592 -7.494608,23.066034 -24.253061,0 -7.494608,-23.066035 z"
       inkscape:randomized="0"
       inkscape:rounded="0"
       inkscape:flatsided="true"
       sodipodi:arg2="-0.9424778"
       sodipodi:arg1="-1.5707963"
       sodipodi:r2="16.690739"
       sodipodi:r1="20.630886"
       sodipodi:cy="102.53125"
       sodipodi:cx="62.555058"
       sodipodi:sides="5"
       id="path4623-8"
       style="opacity:1;fill:#ffc9ff;fill-opacity:1;stroke:none;stroke-width:10.54568195;stroke-linecap:butt;stroke-miterlimit:4;stroke-dasharray:none;stroke-dashoffset:0;stroke-opacity:1;paint-order:markers stroke fill"
       sodipodi:type="star"
       inkscape:export-xdpi="60.959999"
       inkscape:export-ydpi="60.959999" />
    <rect
       transform="matrix(-0.78438039,-0.6202801,-0.66058994,0.75074692,0,0)"
       y="30.354288"
       x="-137.13907"
       height="1.5385466"
       width="7.540751"
       id="rect4625-0"
       style="opacity:1;fill:#ffc9ff;fill-opacity:1;stroke:none;stroke-width:3.30227613;stroke-linecap:butt;stroke-miterlimit:4;stroke-dasharray:none;stroke-dashoffset:0;stroke-opacity:1;paint-order:markers stroke fill"
       inkscape:export-xdpi="60.959999"
       inkscape:export-ydpi="60.959999" />
    <rect
       transform="matrix(-0.66058994,0.75074692,0.78438039,0.6202801,0,0)"
       style="opacity:1;fill:#ffc9ff;fill-opacity:1;stroke:none;stroke-width:3.30227613;stroke-linecap:butt;stroke-miterlimit:4;stroke-dasharray:none;stroke-dashoffset:0;stroke-opacity:1;paint-order:markers stroke fill"
       id="rect4627-8"
       width="5.2144728"
       height="2.3521576"
       x="32.364098"
       y="132.16438"
       inkscape:export-xdpi="60.959999"
       inkscape:export-ydpi="60.959999" />
    <path
       inkscape:connector-curvature="0"
       id="path4629-9"
       d="m 81.178158,112.53987 a 2.144646,2.0331384 0 0 1 -0.0168,0.021 2.144646,2.0331384 0 0 1 -3.02064,0.25891 2.144646,2.0331384 0 0 1 -0.27312,-2.86358 2.144646,2.0331384 0 0 1 0.0186,-0.0196 z"
       style="opacity:1;fill:#ffc9ff;fill-opacity:1;stroke:none;stroke-width:3.29999995;stroke-linecap:butt;stroke-miterlimit:4;stroke-dasharray:none;stroke-dashoffset:0;stroke-opacity:1;paint-order:markers stroke fill"
       inkscape:export-xdpi="60.959999"
       inkscape:export-ydpi="60.959999" />
    <path
       style="fill:#ffceff;fill-opacity:1;stroke:none;stroke-width:29.75238991;stroke-miterlimit:4;stroke-dasharray:none;stroke-opacity:1"
       d="M 399.86914 735.02539 A 122.68303 122.68303 0 0 0 277.18555 857.70898 A 122.68303 122.68303 0 0 0 399.86914 980.39062 A 122.68303 122.68303 0 0 0 522.55273 857.70898 A 122.68303 122.68303 0 0 0 399.86914 735.02539 z M 399.86914 763.66211 A 94.045204 94.045204 0 0 1 493.91406 857.70898 A 94.045204 94.045204 0 0 1 399.86914 951.75391 A 94.045204 94.045204 0 0 1 305.82422 857.70898 A 94.045204 94.045204 0 0 1 399.86914 763.66211 z "
       transform="scale(0.26458333)"
       id="path932"
       inkscape:export-xdpi="60.959999"
       inkscape:export-ydpi="60.959999" />
  </g>
</svg>
